<?xml version="1.0" encoding="iso-8859-1"?>
<!-- Generator: Adobe Illustrator 19.0.0, SVG Export Plug-In . SVG Version: 6.00 Build 0)  -->
<svg version="1.1" id="Capa_1" xmlns="http://www.w3.org/2000/svg" xmlns:xlink="http://www.w3.org/1999/xlink" x="0px" y="0px"
	 viewBox="0 0 512 512" style="enable-background:new 0 0 512 512;" xml:space="preserve">
<g>
	<g>
		<path d="M482.27,303.544v-53.626h-30.39v-87.356h-60.415v-45.929H433.3L336.146,0l-97.154,116.633h41.834v45.929h-46.884
			l-31.991-59.569H0V512h447.989L512,303.544H482.27z M452.278,279.701v23.843H95.712l-5.731,11.38v-35.223H452.278z
			 M391.465,192.344h30.423v57.574h-30.423V192.344z M336.146,46.727l33.422,40.124h-8.095v163.068h-50.654V86.851h-8.095
			L336.146,46.727z M29.993,132.776h153.961l31.992,59.569h64.88v57.574H59.989v124.559L29.993,434.04V132.776z M425.779,482.217
			H39.262l74.984-148.891h357.252L425.779,482.217z"/>
	</g>
</g>
<g>
</g>
<g>
</g>
<g>
</g>
<g>
</g>
<g>
</g>
<g>
</g>
<g>
</g>
<g>
</g>
<g>
</g>
<g>
</g>
<g>
</g>
<g>
</g>
<g>
</g>
<g>
</g>
<g>
</g>
</svg>
